<mxfile host="Electron" agent="Mozilla/5.0 (Macintosh; Intel Mac OS X 10_15_7) AppleWebKit/537.36 (KHTML, like Gecko) draw.io/28.0.6 Chrome/138.0.7204.100 Electron/37.2.3 Safari/537.36" version="28.0.6">
  <diagram name="Page-1" id="TvULyZxkr06eamoJTDBu">
    <mxGraphModel dx="1426" dy="859" grid="1" gridSize="10" guides="1" tooltips="1" connect="1" arrows="1" fold="1" page="1" pageScale="1" pageWidth="827" pageHeight="1169" math="0" shadow="0">
      <root>
        <mxCell id="0" />
        <mxCell id="1" parent="0" />
        <mxCell id="pZgpplsts9IiIXEKkK7a-12" value="&lt;b&gt;tp-e-commerce&lt;/b&gt;" style="verticalAlign=top;align=left;spacingTop=8;spacingLeft=2;spacingRight=12;shape=cube;size=10;direction=south;fontStyle=4;html=1;whiteSpace=wrap;" vertex="1" parent="1">
          <mxGeometry x="30" y="123" width="759" height="480" as="geometry" />
        </mxCell>
        <mxCell id="pZgpplsts9IiIXEKkK7a-1" value="&lt;h1 style=&quot;margin-top: 0px;&quot;&gt;Application e-commerce&lt;/h1&gt;&lt;p&gt;Diagramme de composants&lt;br&gt;v0 - monolithe&lt;/p&gt;" style="text;html=1;whiteSpace=wrap;overflow=hidden;rounded=0;align=center;" vertex="1" parent="1">
          <mxGeometry x="266" y="20" width="296" height="120" as="geometry" />
        </mxCell>
        <mxCell id="pZgpplsts9IiIXEKkK7a-16" style="edgeStyle=orthogonalEdgeStyle;rounded=0;orthogonalLoop=1;jettySize=auto;html=1;" edge="1" parent="1" source="pZgpplsts9IiIXEKkK7a-2">
          <mxGeometry relative="1" as="geometry">
            <mxPoint x="560" y="256" as="targetPoint" />
          </mxGeometry>
        </mxCell>
        <mxCell id="pZgpplsts9IiIXEKkK7a-17" style="edgeStyle=orthogonalEdgeStyle;rounded=0;orthogonalLoop=1;jettySize=auto;html=1;entryX=0;entryY=0.25;entryDx=0;entryDy=0;exitX=0;exitY=0.5;exitDx=0;exitDy=0;" edge="1" parent="1" source="pZgpplsts9IiIXEKkK7a-2" target="pZgpplsts9IiIXEKkK7a-6">
          <mxGeometry relative="1" as="geometry">
            <Array as="points">
              <mxPoint x="50" y="256" />
              <mxPoint x="50" y="490" />
            </Array>
          </mxGeometry>
        </mxCell>
        <mxCell id="pZgpplsts9IiIXEKkK7a-2" value="&lt;p style=&quot;margin:0px;margin-top:6px;text-align:center;&quot;&gt;&lt;b&gt;index.js&lt;/b&gt;&lt;/p&gt;&lt;hr size=&quot;1&quot; style=&quot;border-style:solid;&quot;&gt;&lt;p style=&quot;margin:0px;margin-left:8px;&quot;&gt;app: Express&lt;br&gt;server.listen()&lt;/p&gt;" style="align=left;overflow=fill;html=1;dropTarget=0;whiteSpace=wrap;" vertex="1" parent="1">
          <mxGeometry x="80" y="211" width="180" height="90" as="geometry" />
        </mxCell>
        <mxCell id="pZgpplsts9IiIXEKkK7a-3" value="" style="shape=component;jettyWidth=8;jettyHeight=4;" vertex="1" parent="pZgpplsts9IiIXEKkK7a-2">
          <mxGeometry x="1" width="20" height="20" relative="1" as="geometry">
            <mxPoint x="-24" y="4" as="offset" />
          </mxGeometry>
        </mxCell>
        <mxCell id="pZgpplsts9IiIXEKkK7a-13" style="edgeStyle=orthogonalEdgeStyle;rounded=0;orthogonalLoop=1;jettySize=auto;html=1;entryX=1;entryY=0.5;entryDx=0;entryDy=0;dashed=1;dashPattern=8 8;" edge="1" parent="1" source="pZgpplsts9IiIXEKkK7a-4" target="pZgpplsts9IiIXEKkK7a-10">
          <mxGeometry relative="1" as="geometry" />
        </mxCell>
        <mxCell id="pZgpplsts9IiIXEKkK7a-4" value="&lt;p style=&quot;margin:0px;margin-top:6px;text-align:center;&quot;&gt;&lt;b&gt;products.js&lt;/b&gt;&lt;/p&gt;&lt;hr size=&quot;1&quot; style=&quot;border-style:solid;&quot;&gt;&lt;p style=&quot;margin:0px;margin-left:8px;&quot;&gt;router: Express&lt;br&gt;GET /products&lt;/p&gt;" style="align=left;overflow=fill;html=1;dropTarget=0;whiteSpace=wrap;" vertex="1" parent="1">
          <mxGeometry x="560" y="240" width="180" height="90" as="geometry" />
        </mxCell>
        <mxCell id="pZgpplsts9IiIXEKkK7a-5" value="" style="shape=component;jettyWidth=8;jettyHeight=4;" vertex="1" parent="pZgpplsts9IiIXEKkK7a-4">
          <mxGeometry x="1" width="20" height="20" relative="1" as="geometry">
            <mxPoint x="-24" y="4" as="offset" />
          </mxGeometry>
        </mxCell>
        <mxCell id="pZgpplsts9IiIXEKkK7a-15" style="edgeStyle=orthogonalEdgeStyle;rounded=0;orthogonalLoop=1;jettySize=auto;html=1;entryX=0;entryY=0.5;entryDx=0;entryDy=0;dashed=1;dashPattern=8 8;" edge="1" parent="1" source="pZgpplsts9IiIXEKkK7a-6" target="pZgpplsts9IiIXEKkK7a-10">
          <mxGeometry relative="1" as="geometry" />
        </mxCell>
        <mxCell id="pZgpplsts9IiIXEKkK7a-6" value="&lt;p style=&quot;margin:0px;margin-top:6px;text-align:center;&quot;&gt;&lt;b&gt;cart.js&lt;/b&gt;&lt;/p&gt;&lt;hr size=&quot;1&quot; style=&quot;border-style:solid;&quot;&gt;&lt;p style=&quot;margin:0px;margin-left:8px;&quot;&gt;router: Express&lt;br&gt;GET /cart&lt;/p&gt;&lt;p style=&quot;margin:0px;margin-left:8px;&quot;&gt;POST /cart&lt;/p&gt;&lt;p style=&quot;margin:0px;margin-left:8px;&quot;&gt;DELETE /cart&lt;/p&gt;" style="align=left;overflow=fill;html=1;dropTarget=0;whiteSpace=wrap;" vertex="1" parent="1">
          <mxGeometry x="80" y="465" width="180" height="100" as="geometry" />
        </mxCell>
        <mxCell id="pZgpplsts9IiIXEKkK7a-7" value="" style="shape=component;jettyWidth=8;jettyHeight=4;" vertex="1" parent="pZgpplsts9IiIXEKkK7a-6">
          <mxGeometry x="1" width="20" height="20" relative="1" as="geometry">
            <mxPoint x="-24" y="4" as="offset" />
          </mxGeometry>
        </mxCell>
        <mxCell id="pZgpplsts9IiIXEKkK7a-8" value="&lt;p style=&quot;margin:0px;margin-top:6px;text-align:center;&quot;&gt;&lt;b&gt;orders.js&lt;/b&gt;&lt;/p&gt;&lt;hr size=&quot;1&quot; style=&quot;border-style:solid;&quot;&gt;&lt;p style=&quot;margin:0px;margin-left:8px;&quot;&gt;router: Express&lt;br&gt;GET /orders&lt;/p&gt;&lt;p style=&quot;margin:0px;margin-left:8px;&quot;&gt;POST /orders&lt;/p&gt;" style="align=left;overflow=fill;html=1;dropTarget=0;whiteSpace=wrap;" vertex="1" parent="1">
          <mxGeometry x="562" y="470" width="180" height="90" as="geometry" />
        </mxCell>
        <mxCell id="pZgpplsts9IiIXEKkK7a-9" value="" style="shape=component;jettyWidth=8;jettyHeight=4;" vertex="1" parent="pZgpplsts9IiIXEKkK7a-8">
          <mxGeometry x="1" width="20" height="20" relative="1" as="geometry">
            <mxPoint x="-24" y="4" as="offset" />
          </mxGeometry>
        </mxCell>
        <mxCell id="pZgpplsts9IiIXEKkK7a-10" value="&lt;p style=&quot;margin:0px;margin-top:6px;text-align:center;&quot;&gt;&lt;b&gt;state.js&lt;/b&gt;&lt;/p&gt;&lt;hr size=&quot;1&quot; style=&quot;border-style:solid;&quot;&gt;&lt;p style=&quot;margin:0px;margin-left:8px;&quot;&gt;products: []&lt;/p&gt;&lt;p style=&quot;margin:0px;margin-left:8px;&quot;&gt;cart: []&lt;/p&gt;&lt;p style=&quot;margin:0px;margin-left:8px;&quot;&gt;orders: []&lt;/p&gt;&lt;p style=&quot;margin:0px;margin-left:8px;&quot;&gt;nextOrderId: int&lt;/p&gt;" style="align=left;overflow=fill;html=1;dropTarget=0;whiteSpace=wrap;" vertex="1" parent="1">
          <mxGeometry x="324" y="340" width="180" height="100" as="geometry" />
        </mxCell>
        <mxCell id="pZgpplsts9IiIXEKkK7a-11" value="" style="shape=component;jettyWidth=8;jettyHeight=4;" vertex="1" parent="pZgpplsts9IiIXEKkK7a-10">
          <mxGeometry x="1" width="20" height="20" relative="1" as="geometry">
            <mxPoint x="-24" y="4" as="offset" />
          </mxGeometry>
        </mxCell>
        <mxCell id="pZgpplsts9IiIXEKkK7a-14" style="edgeStyle=orthogonalEdgeStyle;rounded=0;orthogonalLoop=1;jettySize=auto;html=1;entryX=1;entryY=0.63;entryDx=0;entryDy=0;entryPerimeter=0;dashed=1;dashPattern=8 8;" edge="1" parent="1" source="pZgpplsts9IiIXEKkK7a-8" target="pZgpplsts9IiIXEKkK7a-10">
          <mxGeometry relative="1" as="geometry" />
        </mxCell>
        <mxCell id="pZgpplsts9IiIXEKkK7a-18" style="edgeStyle=orthogonalEdgeStyle;rounded=0;orthogonalLoop=1;jettySize=auto;html=1;entryX=1;entryY=0.378;entryDx=0;entryDy=0;entryPerimeter=0;" edge="1" parent="1" source="pZgpplsts9IiIXEKkK7a-2" target="pZgpplsts9IiIXEKkK7a-8">
          <mxGeometry relative="1" as="geometry">
            <Array as="points">
              <mxPoint x="170" y="170" />
              <mxPoint x="762" y="170" />
              <mxPoint x="762" y="504" />
            </Array>
          </mxGeometry>
        </mxCell>
      </root>
    </mxGraphModel>
  </diagram>
</mxfile>
